<svg xmlns="http://www.w3.org/2000/svg" width="64.005" height="64.009"><defs><linearGradient id="a" x1="-288.577" y1="1373.97" x2="-288.577" y2="1422.081" gradientTransform="scale(1 -1) rotate(-45 -1853.687 297.843)" gradientUnits="userSpaceOnUse"><stop offset=".8" stop-color="#fff"/><stop offset="1" stop-color="#fff" stop-opacity="0"/></linearGradient></defs><rect y=".005" width="64" height="64" rx="15" fill="#f1efed"/><g opacity=".04"><path d="M15.514.742c.235-.17.2-.474.255-.737H15c-.127 0-.251.016-.378.019a13.132 13.132 0 0 0-1.5 2.4c-.247.555-.126 1.26-.558 1.733a6.257 6.257 0 0 0-.986 2.676c-.216.385-.113.846-.314 1.235a1.576 1.576 0 0 1-.2.942c-.212.41.106.844-.091 1.262a3.556 3.556 0 0 0-.336 1.294 1.394 1.394 0 0 1-.206.7.841.841 0 0 0-.088.595c.083.291-.111.549-.166.827a.378.378 0 0 0 0 .24 1.284 1.284 0 0 1 .037.895c0 .257-.235.611-.042.814.145.057.287.181.448.165.219-.064.383-.218.289-.445-.181-.348-.478-.676.055-.878.29-.12.067-.3-.059-.461-.152-.319.3-.568.529-.71.327-.165.11-.38-.065-.579.038-.407.348-.632.6-.9-.1-.644.483-1.133.393-1.757 0-1.435.849-2.778 1-4.208.009-.423.442-.72.378-1.137a.252.252 0 0 1 .036-.233c.23-.42.744-.844.535-1.358-.069-.274.213-.416.359-.6.572-.479.262-1.343.844-1.794zm7.785-.737a43.278 43.278 0 0 0-3.242 6.279c.005 1.482-1.361 2.318-1.694 3.649.718 1.374-.717 2.565-.773 3.809a.746.746 0 0 0-.085.531c-.29.388.508 1.393.383.55.068-.269.454.036.349-.146-.1-.269.207-.477.3-.708a54.342 54.342 0 0 1 2.279-7.111c.472-1.861 2.094-3.649 2.321-5.488A3.443 3.443 0 0 1 24.344.005zm2.982 0c-.637.818-1.167 1.731-1.748 2.583a34.2 34.2 0 0 0-3.665 11.579.668.668 0 0 0 .21.554c-.147-.617.726.276.946.482.406.161.05-.325-.06-.459.725-.406-.872-.969-.605-1.4.99-.339.187-.951.782-1.536.683-.377.444-1.044.636-1.6.631-.363.357-1.068.618-1.573.169-.165.417-.324.364-.6-.36-.643.438-.868.449-1.4-.045-.7.92-.967.651-1.793.152-.429.871-.391.8-.9a.679.679 0 0 1 .133-.737c.209-.278.657-.438.721-.792-.021-.168-.157-.392.036-.506 1.315-.391.268-.53.914-.976.359-.079.43-.391.48-.7a1.404 1.404 0 0 1 .136-.226zm3.403 0a14.555 14.555 0 0 0-1.671 2.522c-.821 1.785-5.537 12.488-3.229 13.041.072-.567-.525-1.62.071-1.978.382.044.13-.464.448-.609.568-1.483.813-3.143 1.3-4.624-.184-.469.628-.541.478-.949-.256-.757 1.065-.931 1.047-1.644.369-1.715 1.629-3.048 2.344-4.641a2.253 2.253 0 0 1 .849-1.118zM2.156 7.287c-.706 2.4-.775 5.134-1.3 7.525a3.4 3.4 0 0 0 .864.763c.468.032.009-1.3.164-1.686-.3-.572.456-1 .259-1.566-.328-.738.251-1.49-.143-2.229.559-1.769 1.254-3.357 1.808-5.051a15.048 15.048 0 0 0-1.652 2.244zM38.106.005a23.321 23.321 0 0 0-4.3 3.166c-2.13 2.255-2.87 5.206-3.657 8.09a11.238 11.238 0 0 0-.918 4.1c1.039 1 1.157-2.386 1.145-2.988-.027-.613.826-.955.684-1.641-.112-.554.7-.917.367-1.466-.059-.234.153-.422.33-.536.37-.311.267-.915.742-1.156.393-.289.1-.993.658-1.167.763-.182.738-1.048 1.266-1.491a2.232 2.232 0 0 0 .828-1.276A17.166 17.166 0 0 1 40.578.005zm25.493 11.744a1.058 1.058 0 0 1 .106.294q-.138-.672-.336-1.33c.008.09.016.18.022.272a1.771 1.771 0 0 0 .208.764zM6.531 2.628c-.421 2.243-1.589 6.725-.645 6.469a.483.483 0 0 0 .305-.722 36.166 36.166 0 0 1 1.548-6.492q-.622.345-1.208.745zm51.261 8.239a11.636 11.636 0 0 1 1.916 5.372c.2.808 1.006.373.636-.327-1.567-13.153-18.519-17.316-24.452-4.85a47.57 47.57 0 0 1-1.548 4.961c-.079.4.435.091.633.056.8-2.039 1.931-3.886 2.786-5.89 1.9-2.654 4.511-4.845 7.827-5.226.431.192.8-.262 1.237-.153.5.172.683.375 1.147.083.5-.394.8.482 1.259.135 3.685-.223 6.575 3.077 8.559 5.839z"/><path d="M42.175 1.596c-3.541 1.018-6.262 3.948-8.517 6.711-1.069 1.527-1.026 3.391-1.676 5.06a8.779 8.779 0 0 0-.613 2.707c.182 1 .9.417.651-.333.221-1.329.936-2.755 1.032-4.123-.031-.912.763-1.443.991-2.255a16.115 16.115 0 0 0 1.772-2.4c.222-.668 1.165-.692 1.417-1.365a7.014 7.014 0 0 0 1.538-1.215 7.22 7.22 0 0 0 2.438-1.358c.8-.156 1.45-.675 2.3-.507a11.843 11.843 0 0 0 3.161-.853c2 .062 3.877.448 5.819.672 2 1.426 4.25 2.294 5.9 4.093a20.233 20.233 0 0 1 2.164 3.568c.041 1.29.92 2.526.856 3.757.561.341.309 1.956.684 2.481.866 1.14.24-1.447.206-1.857-1.28-2.557-.895-5.639-2.677-7.972C56.372 2.488 51.03.963 46.152 1.383c-.649-.139-1.231.353-1.7-.364a8.649 8.649 0 0 0-2.277.577zM10.202.805a1.744 1.744 0 0 1-.159.483 19.03 19.03 0 0 0-1.128 3.555 27.17 27.17 0 0 0-.948 3.667c-.044 1.291-.278 2.558-.414 3.83-.123.326-.437 1.5-.25 1.81.138.4-.179.79-.089 1.206.042.139.244.132.364.159.286-.03.41-.4.407-.664a2.102 2.102 0 0 0-.252-.8 8.308 8.308 0 0 0 .352-1.894.871.871 0 0 1 .143-.809c.318-.335.176-.866.467-1.24.388-.486.009-.894.277-1.279.43-.429.29-.976.411-1.494.088-.247.277-.472.253-.744.013-.255-.14-.55.026-.775a1.865 1.865 0 0 0 .513-1.025c.165-1.06.777-1.978.947-3.038.079-.58.564-.579.5-1.2V.4q-.723.168-1.42.405z"/><path d="M54.238 11.88a23.42 23.42 0 0 0 1.854 2.225c.155.56.256 3.4 1.1 2a8.663 8.663 0 0 0-.635-3.242c-2.973-5.027-8.265-8.888-14.065-5.21-3.154 1.845-4.475 5.51-6.111 8.5.17.252.425.762.522.178-.123-.521.7-.664.484-1.226-.023-.914.874-1.264 1.258-1.882 1.755-4.15 6.6-7.089 11.011-5.555.583-.16.63.6 1.1.724.345.156.8.223.894.655.69 1.049 1.868 1.758 2.588 2.833zM33.551.005a11.808 11.808 0 0 0-2.286 2.488c-2.208 3.447-3.059 7.712-3.854 11.512-.118.424.386 2.315.758 1.442-.19-.241-.417-.5-.155-.783l-.142-.288c.528-.808.558-1.886 1.034-2.731.212-.573-.281-1.284.243-1.758.614-.415.149-1.251.66-1.76.367-.3.138-.784.413-1.115a.811.811 0 0 0 .243-.94c.029-.773 1.066-1.042.938-1.949.7-.931 1.136-2.391 2.127-2.964.583-.139.148-.9.662-1.033a.83.83 0 0 0 .426-.121zm-17.72 6.829c-.193 1.934-.729 3.706-1.1 5.587-.029.625.183 1.233-.3 1.755a.734.734 0 0 1-.014.428c-.071.145-.27-.073-.3.086a.62.62 0 0 0 .688.494c.2-.143-.231-1.011.281-.541-.429-.613.268-.267.381-.7-.144-.524.3-.921.234-1.494a4.787 4.787 0 0 0 .328-1.566c.54-1.974.685-4.125 1.841-5.863.219-.641-.3-.976.527-1.433-.031-.852.91-1.386.7-2.22a.738.738 0 0 1 .757-.978c.2-.073.214-.223.187-.389h-.957a69.489 69.489 0 0 0-3.253 6.834z"/><path d="M51.759 12.767c.461.806 1.31 1.28 1.425 2.288.267 1.672.885 2 .655.011.233-2.113-1.57-3.118-2.932-4.434-1.917-2.53-5.931-1.584-8.065.164-1.637 1.268-3.121 3.994-2.443 5.852.711-1.16.443-2.748 1.471-3.833.686-.173.815-.791 1.253-1.187.634-.535 1.324-.945 1.961-1.474.355-.4.925-.22 1.382-.35.408-.13.863-.667 1.242-.174.357.44.981-.092 1.328.392.229.191.421.468.726.536.704.687 1.066 1.665 1.997 2.209z"/><path d="M49.925 14.505c1.849 5.78 1.559-.63-.316-1.808-2.489-1.829-6.085-.363-7.157 2.318.086.591-.6 1.214-.033 1.681.61-.337.771-1.8 1.558-2.189 1.465-1.858 4.683-2.277 5.948-.002z"/><path d="M48.204 15.044c-1.212-1.256-2.805-.12-3.674.959.139 1.559 1.335-.26 1.521-.841.382-.11.7-.458 1.1-.323 1.077.125 1.1 1.416 1.563 2.008.559-.492-.194-1.342-.51-1.803zm-43.555.761a.517.517 0 0 0 .176.379c.132.126.271.246.413.361a.7.7 0 0 0 .163.076c.025-.03.067-.057.065-.081-.007-.08-.061-.168-.04-.235.1-.32.018-.654.1-.974a5.008 5.008 0 0 0 .282-1.383 1.5 1.5 0 0 1-.232-.429.274.274 0 0 1 .021-.234.38.38 0 0 1 .073-.1.463.463 0 0 0 .109-.561 1.935 1.935 0 0 0-.384-.689.072.072 0 0 0-.053-.016c-.014 0-.039.017-.04.027-.016.183-.04.366-.04.549a.925.925 0 0 1-.06.42 1.968 1.968 0 0 0-.149.591c-.034.222-.468 1.357-.511 1.577s.122.389.1.6a1.021 1.021 0 0 0 .007.122zm38.543 2.407a35.917 35.917 0 0 1-.5 4.993 31.72 31.72 0 0 1-3.21 10.066c-1.025 1.583-1.607 5.333-3.076 5.783-5.592 10.734-20.79 18.626-32.593 19.918.174.2.343.395.527.58a32.701 32.701 0 0 0 3.783-.007c12.446-3.663 26.014-10.323 30.705-23.215 1.242-3.105 3.371-5.782 3.528-9.244.663-.97-.4-2.191.579-2.938-.006-.825-.2-1.521.4-2.156a11.835 11.835 0 0 1 .491-3.272c.139-1.205.22-2.785-.634-.508z"/><path d="M39.633 18.093c-.444 0-.1.22-.081.425a.717.717 0 0 0 .079.636c-.114 3.838-1.894 7.428-3.269 10.978-1.909 5.444-4.509 11.184-9.315 14.57.024.17.262.116.279.311-7.12 6.192-15.94 10.652-25.434 11.277.051.092.11.178.163.268.925.09 1.859.148 2.761.162a40.109 40.109 0 0 0 21.25-9.365 25.052 25.052 0 0 0 3.6-4.825c1.527-.743 2.425-2.039 3.623-3.164 1.278-3.034 3.363-5.854 3.781-9.165a1.87 1.87 0 0 0 .571-1.379c.234-.623.847-.98.677-1.752.681-1.881 1.119-3.8 1.691-5.7.356-.4.15-.889.047-1.34-.028-.359.474-.527.3-.936-.265-.514.018-.971.094-1.477-.258-.995-.658.088-.817.476z"/><path d="M2.592 53.453c5.84.546 11.127-1.634 16-4.4.978-.249 1.564-1.148 2.556-1.4.625-.877 1.757-1.029 2.536-1.78 1.789-1.182 2.682-3.146 4.316-4.4.077-.351.319-.886.736-.846.741-.022.915-1.063 1.564-1.357a43.523 43.523 0 0 0 3.932-7.11c1.822-4.7 3.721-9.9 3.773-14.844-.191 0-.5-.209-.606 0-.019.359-.379.577-.479.883.873 6.389-4.651 17.382-9.128 22.335l.071.274C20.91 47.935 11.655 53.13 1.504 53.16c.064.539.722.323 1.088.293z"/><path d="M31.54 17.946c-.41-.017-.2-.823-.6-.672-.537.588-.071 1.289-.059 1.919-2.2 15.206-13.037 27.492-28.9 28.181 3.313 1.905 8.177-1.135 11.631-1.852a32.442 32.442 0 0 0 6.285-3.577c.664-.708 1.845-.94 2.166-1.94.3-.627 1.054-.82 1.091-1.621 1.634-2 4.168-3.766 4.393-6.694a1.676 1.676 0 0 0 .867-1.824c1.086-1.778 1.37-3.884 2.261-5.792a5.422 5.422 0 0 0 .06-2.106 2.676 2.676 0 0 0 .354-1.761 3.369 3.369 0 0 0 .451-2.261zM1.956 47.372h.026c0-.007-.007-.011-.01-.018z"/><path d="M2.368 50.772c.548-.453 1.15.121 1.694-.2a1.373 1.373 0 0 1 1.536-.177 21.674 21.674 0 0 0 7.261-1.649 43.78 43.78 0 0 0 15.542-12.1 38.338 38.338 0 0 0 3.9-8.194c.406-.592.361-.46.341-1.256a7.824 7.824 0 0 0 1.331-3.98c-.1-.623.049-1.248-.106-1.868-.046-.245-.254-.552 0-.741.93-.961.48-2.2.7-3.367l-.265-.344c-.36.165-.373.676-.452 1.023-.322 12.986-9.723 25.933-22.426 30.549-.91.962-13.057 1.806-9.056 2.304z"/><path d="M1.683 39.967c.071.073.146.142.242.236 11.3.7 20.338-9.649 22.008-20.086a3.622 3.622 0 0 0 .159-1.812c.171-.317.242-.574-.064-.683-.167.011-.31.267-.384.384s-.282-.144-.309.009c.638 6.142-4.267 10.893-7.517 15.694a19.786 19.786 0 0 1-13.811 5.959c-.601-.174-1.433.071-.324.299z"/><path d="M1.801 44.723c.145-.008.221-.212.377-.1.592.334 1.3-.174 1.939-.164 2.333-.737 4.923-.663 7.262-1.4a38.754 38.754 0 0 0 8.748-5.1c2.762-2.187 4.167-5.538 6.219-8.294 1.355-3.27 1.933-6.775 2.894-10.087.049-.856.432-1.659.446-2.505-.329-.46-.72.267-.624.645-.042.195-.266.108-.4.085-.207.124-.477.618-.28.849 1.6-.569-2.023 7.948-2.172 9.1-4.151 10.2-13.556 15.6-24.345 16.6-.05.096-.273.334-.064.371z"/><path d="M26.457 19.479c-1.13 4.905-2.833 10.026-5.846 14.072-4.931 4.412-11.381 8.079-18.1 8.439-.311.057-1.1-.124-.756.328.891.061 1.688-.354 2.54-.21 5.3.263 9.993-2.726 14.317-5.569 5.322-4.855 8.048-11.973 8.343-19.182.028-.218-.549-.406-.5-.151.364.621.02 1.584.002 2.273z"/><path d="M1.453 34.956c1.112.158 2-.463 3.039-.672 1.592-.124 3.128-.112 4.474-1.063 3.32-1.1 5.9-3.718 7.786-6.537a17.81 17.81 0 0 1 1.44-5.332c.255-.6-.186-1.241.406-1.768.436-.7.173-1.593.17-2.349a.7.7 0 0 0-.689.8 12.101 12.101 0 0 1-.854 3.935c-2.112 8.735-8.71 10.787-15.772 12.986z"/><path d="M22.024 17.295c-.3-.54-.485.615-.9.451a1.875 1.875 0 0 0-.261.507c.037.253.413.094.344.276-.179.787-.424 1.572-.64 2.349-1.224 4.147-2.7 8.922-6.4 11.477-3.9 1.615-8.286 5.406-12.618 4.42-.1-.031-.172.132-.147.2.485.856 1.291.131 1.992.2 1.482.088 3.013.292 4.406-.409 1.4-1.189 3.286-1.6 4.764-2.555 1.576-1.008 2.591-2.578 4.172-3.53a12.037 12.037 0 0 1 1.49-2.782c.173-1.1 1.179-1.684 1.525-2.762a39.864 39.864 0 0 1 2.127-6.54l-.094-.676c.092-.216.256-.393.24-.626z"/><path d="M15.366 19.505c-1.507 6.219-6.935 12.148-13.621 12.01-.9 1.128 1.825.092 2.294.183a10.029 10.029 0 0 0 7.688-4.03 23.733 23.733 0 0 0 4.545-10.263c-.041-.273-.843-.395-.787-.063.413.582.085 1.532-.119 2.163z"/><path d="M1.182 29.117c2.767 1.2 5.5-1.639 8.112-2.435a10.1 10.1 0 0 0 2.271-3.134 4.248 4.248 0 0 0 1.262-2.508c.137-1.359 1.31-2.743.46-4.05-2.5 6.4-3.482 11.055-11.686 12.069v-.017c-.117.027-.422-.076-.419.075zm.556-5.172c3.364.657 5.945-3.041 6.5-5.962-.9-2.278-1.385 2.08-2.272 2.568-2.034 3.643-6.209 2.528-4.228 3.394z"/><path d="M8.81 21.472a9.187 9.187 0 0 1-4.818 4.11c-.775.272-2.4.192-2.684.956.641.256 1.007-.636 1.646-.584a17.717 17.717 0 0 0 3.379-.526c1.471-.615 2.484-2.529 3.613-3.721a9.129 9.129 0 0 0 .8-2.905c.059-.373.765-1.057.238-1.281-.2-.12-.706-.3-.592.113a7.1 7.1 0 0 1-1.582 3.838zm-7.318-.355a3.4 3.4 0 0 0 3.544-2.141c.31-.4.846-1.876.186-2-.968.666-.8 2.331-2.033 2.971-.49.904-3.577.548-1.697 1.17zm-.414-2.112c.548.56 1.047-.431 1.249-.792.474-.054.752-.9.365-1.16-.546.38-.917 1.92-1.926 1.4-.254.069.289.357.312.552zm.792 28.253a.147.147 0 0 0-.047.014.106.106 0 0 0 .125.083h.001c-.017-.041-.023-.098-.079-.097zm.086.114l.016-.016h-.023zM64 33.17a9.025 9.025 0 0 0-.594.905c-.916 1.148-1.949 2.172-2.8 3.4l-.023-.009c-5.04 7.939-7.291 17.166-8.691 26.254.388-.075.766-.175 1.143-.28a59.448 59.448 0 0 1 1.737-11.662c.778-3.14 2.547-5.839 3.892-8.764.914-1.265 1.3-2.834 2.185-4.162l.02.013a14.1 14.1 0 0 1 3.132-3.723z"/><path d="M64 39.553v-.648a8.701 8.701 0 0 0-1.283 1.248c-3.7 7.015-7.253 14.7-7.943 22.7.393-.164.773-.35 1.148-.546a64.048 64.048 0 0 1 1.079-7.221c.65-2.715 2.628-5.19 3.32-7.81 1.086-2.616 1.923-5.428 3.679-7.723zm0 5.813c-.411.588-.706 1.256-1.071 1.875a39.001 39.001 0 0 0-4.353 13.308 15.151 15.151 0 0 0 1.916-1.906 37.473 37.473 0 0 1 2.522-9.817c.084-.648.781-.847.991-1.411zM20.073 63.768c-.02-.021-.068-.016-.1-.023a1.125 1.125 0 0 0-.007.26h.307c-.075-.071-.129-.163-.2-.237zm33.866-23.586c.35.212.714-.143 1.028-.487a.063.063 0 0 0-.064-.034 7.103 7.103 0 0 1-1.248.467.519.519 0 0 1 .284.054z"/><path d="M60.055 32.018c-.532.2-.764.657-1.2.744a42.785 42.785 0 0 1-5.773 1.5c-.954.2-1.948.226-2.91.4-.573-.022-1.11-.4-1.694.015-.5-.391-1.032-.173-1.569 0-.485-.795-.975.03-1.535-.061-.169-.168-.376-.286-.6-.15-.13.044-.116.256.026.259 1.386.1 2.8.51 4.217.569 9.406 1.148 14.18-6.947 6.762 4.261-.121-.679-.432-.277-.818.143.057.078-.095.3-.109.4-.345 1.473-1.407 1.974-2.746 2.355-.636-.068-1.145.6-1.694.106-.322.289-.817 1.082-1.2.529-.331-.5-.893-.234-1.37-.432-.239-.678-.69-.282-1.186-.4-.567-.36-1.062.63-1.53-.065-.543-.445-1.013.734-1.5-.11-.355-.538-.831-.054-1.28-.2a1.281 1.281 0 0 0-.752-.512 4.3 4.3 0 0 0-.89-1.337c.063-.435.321-.886.658-.422 2.236.522 4.415 1.288 6.76 1.018a20.532 20.532 0 0 0 5.52-.5c-.231.009-.464.1-.64-.071-.415-.39-1.228-.626-1.618-.076-.587-.111-1.067.308-1.666.257-.44.1-.892-.534-1.249.078-1.081.566-2.4-.669-3.418-.212-1.1.368-1.774-1.2-2.889-.855-.188-.672.439-1.355.775-1.9l.032.214c3.395.139 6.945 1.109 10.409.381 3.764-.551 7.293-4.222.96-1.184-.419-.126-.8.156-1.2.241-.344-.357-.7-.119-1.1-.082a5.056 5.056 0 0 0-2.633-.082 13.358 13.358 0 0 0-5.9.1c-.061-.161-.269-.2-.345-.371.244-.769.132-1.994 1.049-2.214-.458-.526.243-1.4.48-1.947.623-.548 1.659.281 2.431.231 3.832.434 8.8.82 11.466-2.587 2.318-1.623 4.557-3.482 5.4-6.166v-6.458a.424.424 0 0 0-.073 0c-1.154.878-.125 3.414-.437 4.858-.5 1.484-.712 3.289-1.776 4.473-.607.839-1.712 1.121-2.487 1.724a9.483 9.483 0 0 1-1.652 1.862 12.702 12.702 0 0 1-2.511 1.227c-.4.521-.953-.2-1.421.154-.367.251-.815-.127-1.148.249-1.851-.022-3.957.758-5.824.083-.39-.266-.949.434-1.283-.2-.73-.462-.1-1.384.453-1.775 1.2-.893 2.777.3 4.155-.13 4.566.093 10.133-2.29 11.242-7.2 1.26-1.574.533-3.411.412-5.257-.6-1.632-.735.982-.5 1.544.515 1.719-.521 2.933-.886 4.508-.736 1.128-1.509 2.619-2.774 3.088-1.906.849-3.892 2.151-5.878 2.437-.363-.162-.569.326-.892.267a2.64 2.64 0 0 0-1.841-.019c-.543-.676-1.3.036-2-.142-.3-.048-.616-.522-.768.022-.149.656-.411.41-.341-.139-.037-.72.722-1.07.861-1.732 5.385.894 13.6-2.434 12.474-9.013.013-.145.031-.615.031-.761s-.1.172-.227.089-.338-.185-.422-.011c-.329.129.164 1.865-.082 2.528a5.806 5.806 0 0 1-2.094 3.382 18.282 18.282 0 0 1-5.195 3.104 3.249 3.249 0 0 0-2.086.085c-.682-.194-.484-.213-1.1.114-.31-.328-1.072-.163-1.181-.537.416-.692.1-2.351.831-2.537 4.05 1.618 8.808-2.118 8.8-6.326-.828-1.416-1.428 3.041-2.04 3.5-1.033.628-1.84 1.544-2.825 2.283-.569.172-1.173.058-1.737.25a6.08 6.08 0 0 0-2.258-.412c-.495-3.3 3.229-.256 4.488-2.706.4-.967 1.908-2.166 1.088-3.217-1.032-.179-.448 1.439-1.258 1.884a2.754 2.754 0 0 1-3.648 1.955c-.354-.275-.169-1.335.2-1.529a3.07 3.07 0 0 0 1.2-.184 1.33 1.33 0 0 0 .988-2.025c-.053-.123-.174-.031-.244.031-.491.582-.7 1.707-1.652 1.588-.853.131-.066-1.155-.382-1.671-.282-.271-.457.412-.5.621-1.01 8.98-5.592 18.842-9.774 27.426-7.62 8.557-18.215 15.112-29.427 17.311a14.916 14.916 0 0 0 1.921.769c.054-.611.527-.395 1.449-.619 1.027-.5 1.156.328 1.166 1.176.088.011.174.03.264.04a1.933 1.933 0 0 0 .147-1.329c.185-.6 1.266-.4 1.792-.639a2.364 2.364 0 0 1 .737 2.058h.664a16.388 16.388 0 0 1-.177-1.682c.062-.373-.5-.371-.442-.624 4.366-2.305 4.605-1.943 4.757 2.306h.829c-.065-1.541-.269-3.217-1.345-4.292 3.798-2.899 3.451 1.392 3.345 4.292h.778a44.558 44.558 0 0 1-.4-6.174c.3-.147 1.251-1.095 1.29-.621a19.622 19.622 0 0 1 1.174 6.795h.74a14.807 14.807 0 0 0-.352-4.128c-.159-.641.169-1.419-.5-1.826l.1-.362c-.154-.224-.148-.609-.4-.731-.095-.056-.148-.26-.053-.32 1.647-1.209 1.577-1.091 2.2.814a35.354 35.354 0 0 1 1.267 6.553h1.32c.809-10.883-4.275-8.653.948-10.805 2.1 2.776 1.716 7.193 1.9 10.805h.956a23.148 23.148 0 0 0-1.953-10.645c-.4-.174-.913-.358-.44-.839.8-.528 1.808-2.168 2.795-1.744 2.082 3.911 2.2 8.773 2.507 13.228h1c-.319-3.163-.365-6.374-1.342-9.4-.324-1.6-.433-3.605-1.983-4.438 3.178-7.982 5.686 9.114 5.72 13.842h1.049a8.198 8.198 0 0 1-.244-2.259c.233-.872.73-1.666.424-2.637-.115-.378-.561-.582-.5-1.033.084-.411-.533-.5-.447-.9.126-.471.166-.531-.252-.826-.363-1.363.054-2.953-.421-4.371-1.011-1.608-1.391-3.508-2.311-5.074.778-3.753 3.047 5.188 3.46 6.116a29.425 29.425 0 0 1 2.059 10.98h1.136c.291-3.247-.722-6.222-1.908-9.228-.466-.672-.142-1.208-.121-1.88-.176-1.379-1.108-2.438-1.527-3.732-.655-.893-.35-2.215-1.1-2.991-.5-.316-.613-.929-.985-1.327 1.592-3.623 1.055-4.066 3.208-.134 1.85 2.753 2.379 6.031 2.911 9.241a30.212 30.212 0 0 1 1.313 10.051h2.029a12.948 12.948 0 0 1 .451-4.288c.522-.078.193-.759.394-1.118-.134-3.252 2.009-6.014 2.786-9.111.591-3.512 2.848-6.536 3.868-9.942 2-3.662 4.972-6.728 7.764-9.824v-1.965a14.536 14.536 0 0 1-2.188 2.92c-.498.528-1.375.653-1.757 1.341zM46.826 55.661c.343.069 1.25.051 1.1.58-.271.19-.565 1.2-.932.826-.022-.454-.416-1.012-.168-1.406zm.592 7.462c-.072 1.568-.828-1.529.027-.975a2.895 2.895 0 0 1-.027.975zm.2-2.094c-.028.234-.259.3-.461.3-.276-.222.277-.719.037-1.066-.109-.7-.3-1.433.42-1.776.578.389.055 1.843.001 2.542zm.452-3.447a.809.809 0 0 1-.343.4l-.031-.111c.096-1.159.949-2.101.371-.289zm1.259-3.916a8.3 8.3 0 0 1-1.043 2.52c-.221-.358.615-.941.17-1.183a1.887 1.887 0 0 0-1.951.053c-.661-.657-.275-1.436-.517-2.15-.066-.092-.2-.293-.028-.338.866.63 3.772-.387 3.366 1.098zm1.128-3.388a5.126 5.126 0 0 0-.305 1.048c-.429.215-.2 1-.766.94-.5-.057-1.11.172-1.551-.067-.32-.374-.814.174-1.14-.151-.281-.411-.854.109-1.074-.313-.017-1.891-.986-2.634 1.414-2.126.733.472 3.649-.313 3.419.669zm2.048-5.418c-1.166.2-2.655-.487-3.527.585-.189.224-1.189-.1-.777.576.989-.01 3.113-.526 3.635.273-.47.58-.328 1.855-1 2.112a3.23 3.23 0 0 0-2.038.983c-.273.154-.44.083-.6-.188-.38-.186-.671.129-.907-.457a1.759 1.759 0 0 0-1.961.117c-1.066-.556-1.1-2.535-1.78-3.579.523-.155 4.246 1.471 3.559.35-.272-.235-.571.283-.849.027-.42-.524-1.087-.476-1.6-.833-1.155-.418-1.866-.2-2.283-1.662 0-.223-.339-.721-.089-.806a12.935 12.935 0 0 0 3.411.844 30.571 30.571 0 0 0 6.095.079c.485.033 1.658-.836 1.753.021a5.477 5.477 0 0 1-1.045 1.558zm8.034-13.173l-.039-.022.046-.013zM8.247 17.968l-.009.015v.056c0 .02.054-.134.009-.071z"/></g><path d="M50.16 44.062L20.37 14.271a1.405 1.405 0 0 0-1.986 0l-3.972 3.972a1.4 1.4 0 0 0-.006 1.98l.006.006 29.79 29.791a1.405 1.405 0 0 0 1.986 0l3.972-3.972a1.4 1.4 0 0 0 .006-1.98zm-31.915-24.19a1.25 1.25 0 1 1 1.768 0h-.001a1.25 1.25 0 0 1-1.766 0z" fill="#f5c765"/><path d="M41.865 17.601L20.601 38.866l-.012 4.976 4.977-.011 21.265-21.265-1.987-2.979z" fill="#387e56"/><path d="M47.781 21.616l1.573-1.574a3.416 3.416 0 0 0-.029-4.83q-.059-.06-.121-.115a3.6 3.6 0 0 0-5 .165l-1.388 1.389 1.919 2.914z" fill="#be4133"/><path d="M40.866 18.6l1.973-1.972 4.965 4.966-1.972 1.972z" fill="#aeb0ae"/><path d="M23.057 21.017l2.029-2.029.496.496-2.029 2.03zm1.679 3.784l3.081-3.082.496.497-3.081 3.081zm3.784 1.677l2.028-2.029.497.496-2.03 2.03zm7.386 9.494l3.082-3.082.496.497-3.081 3.081zm3.786 1.678l2.028-2.028.497.496-2.03 2.029zm1.677 3.783l3.081-3.082.497.497-3.082 3.081zm3.784 1.678l2.029-2.029.496.496-2.028 2.03z" opacity=".1" style="isolation:isolate"/><path d="M23.792 43.417a.222.222 0 0 1-.186-.186l-.285-1.89a.222.222 0 0 0-.186-.186l-1.888-.283a.223.223 0 0 1-.186-.186l-.3-1.983-.176.177a10.53 10.53 0 0 0-2.062 2.925l-1.673 3.412-.307 2.672 2.672-.306 3.413-1.678a10.533 10.533 0 0 0 2.924-2.06l.176-.177z" fill="#d3ab89"/><path d="M19.215 47.582l-2.365-2.366-1.716 3.5a.439.439 0 0 0 .583.582z" fill="#64625c"/><path d="M17.512 46.212l2.314-2.835a34.313 34.313 0 0 1 2.4-2.654l.014-.014 23.89-23.89a7.386 7.386 0 0 1 2.829-1.948 3.626 3.626 0 0 0-4.743.386l-23.6 23.6-.014.014a10.531 10.531 0 0 0-2.071 2.929l-1.673 3.412-1.716 3.5a.43.43 0 0 0 .012.393z" transform="translate(-.008 .005)" opacity=".1" fill="url(#a)" style="isolation:isolate"/></svg>